<?xml version="1.0" standalone="no"?><!DOCTYPE svg PUBLIC "-//W3C//DTD SVG 1.1//EN" "http://www.w3.org/Graphics/SVG/1.1/DTD/svg11.dtd"><svg t="1589025230129" class="icon" viewBox="0 0 1024 1024" version="1.1" xmlns="http://www.w3.org/2000/svg" p-id="1882" width="64" height="64" xmlns:xlink="http://www.w3.org/1999/xlink"><defs><style type="text/css"></style></defs><path d="M14.336 840.704h995.328V183.296H14.336z m997.734 2.458zM10.24 844.8V179.2h1003.52v665.6z" fill="#353636" p-id="1883"></path><path d="M12.698 180.838h999.424v661.504H12.698z" fill="#D64B24" p-id="1884"></path><path d="M179.814 256l21.402 64.666h68.352l-55.142 39.219 20.48 64.614-55.092-40.038-55.142 40.038 21.402-64.614-55.143-39.22h68.301z m177.818-34.304l-0.82 22.886 20.48 8.192-22.22 5.735-0.82 22.067-12.236-18.79-21.402 5.12 13.978-17.152-11.52-19.047 20.48 9.011z m76.8 72.755l-9.882 19.61 15.616 15.36-22.22-3.277-9.882 19.61-3.584-21.812-22.22-3.276 19.762-9.83-3.276-22.068 15.616 15.36z m-23.296 90.01l7.424 21.248h22.22l-18.124 13.107 6.605 21.248-18.125-13.107-18.125 13.107 7.424-21.248-18.125-13.107h22.17z m-53.504 68.659l-1.638 22.067 21.401 8.192-22.22 5.735-1.895 22.067-11.264-18.79-22.22 5.734 14.796-17.152-12.34-18.79 21.402 8.191z" fill="#FBDC00" p-id="1885"></path></svg>