<?xml version="1.0" standalone="no"?><!DOCTYPE svg PUBLIC "-//W3C//DTD SVG 1.1//EN" "http://www.w3.org/Graphics/SVG/1.1/DTD/svg11.dtd"><svg t="1589025259122" class="icon" viewBox="0 0 1024 1024" version="1.1" xmlns="http://www.w3.org/2000/svg" p-id="2151" xmlns:xlink="http://www.w3.org/1999/xlink" width="64" height="64"><defs><style type="text/css"></style></defs><path d="M901.216 261.344H595.552v152.832z m-472.768 0H122.784l305.664 152.832z m584.896 167.104V317.376L791.2 428.448zM10.656 317.376v111.072H232.8z m0 278.176v111.072L232.8 595.552z m112.128 167.104h305.664V609.824z m890.56-56.032V595.552H791.2z m-417.792 56.032h305.664L595.552 609.824z" fill="#1B2F67" p-id="2152"></path><path d="M344.896 428.448L10.656 261.344v37.344l259.488 129.76z m334.208 167.104l334.24 167.104v-37.344l-259.488-129.76z m0-167.104l334.24-167.104h-74.752L604.384 428.448zM344.896 595.552L10.656 762.656h74.752l334.208-167.104z" fill="#C31C2C" p-id="2153"></path><path d="M10.656 562.144v33.408H232.8L10.656 706.624v56.032l334.24-167.104h74.72L85.408 762.656h37.376l305.664-152.832v152.832h33.408V562.144z m668.448-133.696h-74.72l334.208-167.104h-37.376L595.552 414.176V261.344h-33.408v200.512h451.2v-33.408H791.2l222.144-111.072v-56.032zM461.856 261.344h-33.408v152.832L122.784 261.344H10.656l334.24 167.104h-74.752L10.656 298.688v18.688L232.8 428.448H10.656v33.408h451.2z m100.288 501.312h33.408V609.824l305.664 152.832h112.128l-334.24-167.104h74.752l259.488 129.76v-18.688L791.2 595.552h222.144v-33.408h-451.2z" fill="#FFFFFF" p-id="2154"></path><path d="M562.144 261.344H461.856v200.512h-451.2v100.288h451.2v200.512h100.288V562.144h451.2V461.856h-451.2z" fill="#C31C2C" p-id="2155"></path></svg>